<svg width="64" height="64" viewBox="0 0 64 64" fill="none" xmlns="http://www.w3.org/2000/svg">
<mask id="mask0_2_30" style="mask-type:luminance" maskUnits="userSpaceOnUse" x="0" y="0" width="64" height="64">
<path d="M64 0H0V64H64V0Z" fill="white"/>
</mask>
<g mask="url(#mask0_2_30)">
<g filter="url(#filter0_d_2_30)">
<path d="M58.6322 29.7291C58.6321 36.7375 55.8479 43.4589 50.8921 48.4147C45.9363 53.3705 39.215 56.1546 32.2064 56.1548C31.845 56.1548 31.4904 56.148 31.1289 56.1344C29.1985 56.0555 27.2824 55.7674 25.4142 55.2751C25.7756 55.091 26.1302 54.9069 26.4848 54.7091C26.4916 54.7091 26.4985 54.7023 26.5121 54.6955L26.5189 54.6886C26.894 54.484 27.2623 54.2795 27.6237 54.0681C27.7123 54.0135 27.801 53.9658 27.8897 53.918C28.2306 53.7134 28.5716 53.5089 28.9058 53.2906C29.0046 53.2371 29.1002 53.1779 29.1922 53.1133C29.4513 52.9565 29.7105 52.786 29.9628 52.6155C30.1401 52.4996 30.3242 52.3768 30.4947 52.2609C30.7539 52.0836 31.0062 51.9063 31.2585 51.7221C31.429 51.6062 31.5859 51.4903 31.7495 51.3607C31.9678 51.2107 32.1792 51.047 32.3906 50.8833C32.5815 50.7469 32.7656 50.6037 32.9498 50.4537C33.2089 50.2559 33.4612 50.0513 33.7136 49.8331C33.8227 49.7513 33.9318 49.6626 34.0409 49.5671C34.3137 49.3421 34.5796 49.1102 34.8456 48.8716C34.9888 48.7488 35.132 48.6261 35.2752 48.4897C35.4321 48.3533 35.5821 48.2169 35.7321 48.0737C36.0186 47.8145 36.2982 47.5417 36.5778 47.269C36.6152 47.2383 36.6495 47.2041 36.6801 47.1667C36.9528 46.9075 37.2188 46.6347 37.478 46.362C37.6621 46.1846 37.8326 46.0005 37.9962 45.8164C38.194 45.6186 38.3781 45.414 38.5623 45.2095C38.6714 45.0935 38.7737 44.9776 38.8691 44.8617C39.1146 44.5889 39.3533 44.3093 39.592 44.0297C39.7148 43.8865 39.8375 43.7364 39.9535 43.5864C40.1308 43.3818 40.3012 43.1772 40.4581 42.9658C40.6218 42.7681 40.7786 42.5635 40.9286 42.3589C41.0719 42.1816 41.2083 41.9974 41.3378 41.8201C41.5151 41.5883 41.6856 41.3564 41.8493 41.1177C42.013 40.879 42.1903 40.6404 42.3539 40.3948C42.4352 40.2878 42.5103 40.1762 42.579 40.0607C42.8108 39.7197 43.0359 39.3719 43.2541 39.0241C43.5337 38.5945 43.7997 38.158 44.052 37.7148C44.1679 37.5238 44.2771 37.3329 44.3862 37.1419C45.2705 35.5822 46.0586 33.9697 46.7457 32.3137C46.848 32.0818 46.9435 31.8499 47.0322 31.6113C47.1413 31.3589 47.2367 31.0998 47.3322 30.8407C47.4141 30.6292 47.4959 30.411 47.5709 30.1928C47.6596 29.9541 47.7414 29.7086 47.8232 29.4699C48.1233 28.597 48.3961 27.7173 48.6348 26.8239C48.6961 26.5989 48.7575 26.3807 48.8121 26.1556C48.853 26.0124 48.8871 25.876 48.9212 25.7328L49.0848 25.0372C49.3031 24.0893 49.4872 23.1346 49.644 22.1662L49.7463 21.5115C49.76 21.4092 49.7736 21.3137 49.7873 21.2114C49.8282 20.9523 49.8623 20.6932 49.8895 20.434C49.9373 20.0453 49.985 19.6566 50.0191 19.2679C50.0328 19.1656 50.0396 19.0633 50.0464 18.961C50.0737 18.695 50.0941 18.4222 50.1146 18.1563C50.1351 17.8903 50.1487 17.6107 50.1623 17.3379C50.176 17.147 50.1828 16.956 50.1896 16.7583C50.2169 16.1309 50.2305 15.5035 50.2305 14.8761C50.2305 14.5556 50.2305 14.2419 50.2169 13.9282C50.2169 13.7645 50.2169 13.6076 50.2101 13.444C50.1896 12.8779 50.1623 12.3187 50.1214 11.7595V11.7391C50.1146 11.6027 50.1078 11.4663 50.0941 11.3299C50.0669 10.9548 50.0328 10.5866 49.9987 10.2115C49.9989 10.1998 49.9965 10.1881 49.9918 10.1774C50.9106 11.0142 51.7698 11.9143 52.5628 12.8711L52.5833 12.8916C52.587 12.8953 52.5894 12.9 52.5901 12.9052C56.5049 17.6367 58.6423 23.588 58.6322 29.7291Z" fill="url(#paint0_linear_2_30)"/>
<path d="M50.2303 14.876C50.234 23.0333 48.0323 31.0399 43.8582 38.0482C39.6841 45.0567 33.693 50.8063 26.5188 54.6886C26.5099 54.6989 26.4979 54.7062 26.4846 54.709L26.4779 54.7158C26.1233 54.9068 25.7686 55.0909 25.414 55.275C23.1885 54.6885 21.051 53.8078 19.0582 52.6563C17.6165 51.826 16.2558 50.8625 14.9937 49.7785C15.2324 49.5262 15.4643 49.2738 15.6961 49.0147L15.7029 49.0079C15.7029 49.0011 15.7098 48.9942 15.7166 48.9874H15.7234C23.1858 40.6936 27.3069 29.9268 27.2894 18.77C27.2905 13.964 26.5309 9.188 25.0389 4.61942H25.0321C25.0321 4.60578 25.0253 4.59214 25.0253 4.5785H25.0184C25.0145 4.56753 25.0122 4.55603 25.0117 4.54439C24.8753 4.1284 24.7321 3.71242 24.582 3.30325H32.2063C38.785 3.29414 45.1292 5.74617 49.9916 10.1773C50.0462 10.6956 50.0871 11.2139 50.1212 11.739C50.1962 12.7756 50.2303 13.819 50.2303 14.876Z" fill="url(#paint1_linear_2_30)"/>
<path d="M27.2895 18.77C27.2895 19.2269 27.2827 19.6838 27.2691 20.1339C27.2623 20.4271 27.2486 20.7135 27.235 21.0068C27.1804 22.1797 27.0781 23.3459 26.9281 24.5052C26.894 24.8053 26.8531 25.0985 26.8053 25.3918C26.7576 25.7532 26.6962 26.1078 26.6349 26.4693C26.5803 26.8102 26.5189 27.1444 26.4507 27.4854C26.4371 27.5672 26.4166 27.649 26.403 27.7309C26.3484 28.0105 26.2871 28.2969 26.2257 28.5765C25.9054 30.0299 25.5116 31.4661 25.0459 32.8796C24.9572 33.1592 24.8618 33.432 24.7663 33.698C24.758 33.7308 24.7466 33.7628 24.7322 33.7935C24.6367 34.0731 24.5413 34.339 24.439 34.6118C24.4117 34.6936 24.3776 34.7823 24.3435 34.8709C24.2344 35.1642 24.1184 35.4506 24.0025 35.737C23.8729 36.0644 23.7365 36.3917 23.5933 36.7122C23.4501 37.0464 23.3001 37.3805 23.1501 37.7147C23.0068 38.0216 22.8568 38.3285 22.7136 38.6285C22.5568 38.949 22.3999 39.2627 22.2362 39.5696C22.0726 39.8765 21.9089 40.1902 21.7384 40.4971C21.5679 40.804 21.3974 41.1108 21.2269 41.4109C21.0565 41.711 20.8723 42.0178 20.6882 42.3179C20.5041 42.618 20.3199 42.9112 20.129 43.2044C19.7539 43.7909 19.3652 44.3706 18.9629 44.9366C18.5605 45.5026 18.1377 46.0618 17.7149 46.6142C17.0738 47.4257 16.4101 48.2168 15.7236 48.9874H15.7167C15.7099 48.9942 15.7099 48.9942 15.7099 49.0011C15.7099 49.0028 15.7092 49.0046 15.7079 49.0059C15.7066 49.0071 15.7049 49.0079 15.7031 49.0079C15.4712 49.267 15.2326 49.5262 14.9939 49.7785C13.9194 48.8551 12.9205 47.8471 12.0069 46.7642C12 46.7513 11.9907 46.7398 11.9796 46.7301C7.96913 41.9737 5.77295 35.9505 5.78067 29.729V3.30323H24.5822C24.7322 3.7124 24.8754 4.12157 25.005 4.53756L25.0118 4.54437C25.0124 4.55601 25.0147 4.56751 25.0186 4.57848H25.0254V4.59893C25.025 4.60264 25.0254 4.60639 25.0265 4.60993C25.0278 4.61346 25.0297 4.6167 25.0323 4.61939H25.0391C25.0451 4.6454 25.0543 4.67058 25.0664 4.6944L25.1482 4.96037C25.3801 5.68324 25.5915 6.41294 25.7824 7.15627C25.9188 7.65409 26.0416 8.16555 26.1575 8.67701C26.3689 9.60447 26.553 10.5524 26.7099 11.514C26.744 11.7458 26.7849 11.9709 26.8122 12.2027C26.894 12.7688 26.969 13.3348 27.0304 13.9076C27.0577 14.119 27.0781 14.3373 27.0918 14.5487C27.1327 14.9442 27.16 15.3466 27.1872 15.7421C27.2554 16.7446 27.2895 17.7539 27.2895 18.77Z" fill="url(#paint2_linear_2_30)"/>
<g style="mix-blend-mode:multiply" opacity="0.15">
<path d="M13.2775 49.3531C11.8359 48.5227 10.4751 47.5592 9.21309 46.4753C14.9488 40.3705 18.8811 32.7961 20.5736 24.5923C22.2661 16.3885 21.6527 7.87631 18.8014 0C18.8014 0 30.6811 18.5424 13.2775 49.3531Z" fill="black"/>
</g>
<g style="mix-blend-mode:multiply" opacity="0.15">
<path d="M25.3483 52.8312C23.4179 52.7523 21.5018 52.4642 19.6335 51.9719C27.0995 48.1892 33.371 42.4113 37.7517 35.2799C42.1325 28.1484 44.451 19.9424 44.4499 11.5729C44.4497 10.0036 44.37 8.43538 44.2112 6.87418C44.2112 6.87418 51.294 32.5566 25.3483 52.8312Z" fill="black"/>
</g>
<g style="mix-blend-mode:multiply" opacity="0.25">
<path d="M44.6684 14.7684C44.6275 15.3276 44.5865 15.9141 44.5456 16.5279C44.4911 17.1348 44.4911 17.7894 44.3751 18.4373C44.2797 19.092 44.1774 19.774 44.0751 20.4696C43.9932 21.172 43.7955 21.8675 43.6454 22.5904C43.5024 23.3343 43.3179 24.0698 43.0931 24.7932C42.868 25.5297 42.643 26.273 42.4111 27.0368C42.1383 27.7801 41.845 28.5234 41.545 29.2804C41.2722 30.0442 40.8903 30.7671 40.5494 31.5104L40.0243 32.622C39.8401 32.9903 39.6287 33.3449 39.431 33.7063C39.015 34.4087 38.6467 35.152 38.183 35.8271C37.7329 36.5091 37.2828 37.1911 36.8327 37.8663C35.9071 39.1496 34.9146 40.3834 33.8594 41.5625C32.8763 42.6664 31.8385 43.7202 30.7497 44.7199C30.2109 45.1768 29.6858 45.6201 29.1812 46.0497C28.9288 46.2611 28.6765 46.4656 28.431 46.6702C28.1787 46.8612 27.9195 47.0454 27.674 47.2227C27.1762 47.5841 26.7057 47.9251 26.2488 48.2524C25.7918 48.5798 25.3281 48.832 24.9121 49.1049C24.0597 49.6164 23.3368 50.0868 22.6889 50.4005C21.5092 51.0143 20.7931 51.3621 20.7045 51.403C20.7177 51.4001 20.7297 51.393 20.7385 51.3825C27.9127 47.5003 33.9039 41.7507 38.078 34.7423C42.2521 27.7338 44.4538 19.7273 44.4502 11.57C44.4502 10.513 44.4161 9.46963 44.341 8.43306C44.3615 8.60355 44.4433 9.38098 44.5524 10.6221C44.5729 10.9836 44.6275 11.3518 44.6275 11.8087C44.6343 12.2315 44.6411 12.6952 44.6479 13.193C44.6547 13.6909 44.6616 14.2119 44.6684 14.7684Z" fill="black"/>
</g>
<g style="mix-blend-mode:multiply" opacity="0.25">
<path d="M9.93639 45.6842H9.94342C9.93639 45.6974 9.92935 45.6974 9.92232 45.704C9.92232 45.6974 9.92935 45.6908 9.93639 45.6842Z" fill="black"/>
</g>
<g style="mix-blend-mode:multiply" opacity="0.25">
<path d="M19.2423 1.27532C19.2457 1.28929 19.2503 1.30297 19.2559 1.31623H19.2491C19.2423 1.30259 19.2423 1.28896 19.2354 1.27532C19.2315 1.26435 19.2292 1.25284 19.2286 1.24121C19.2339 1.25227 19.2384 1.26367 19.2423 1.27532Z" fill="black"/>
</g>
<g style="mix-blend-mode:multiply" opacity="0.25">
<path d="M22.0954 16.0641C22.1074 17.5194 22.039 18.9741 21.8909 20.4218C21.7426 21.9146 21.5173 23.3987 21.2157 24.8682C21.0589 25.6115 20.8952 26.348 20.6906 27.0709L20.3974 28.1552C20.2814 28.5098 20.1723 28.8644 20.0564 29.2191C19.9405 29.5737 19.8313 29.9283 19.7154 30.2761C19.5858 30.6171 19.4563 30.9649 19.3267 31.299C19.0744 31.9878 18.788 32.6425 18.5015 33.2903C18.2287 33.945 17.9219 34.5656 17.615 35.1725C17.3081 35.7795 16.9876 36.366 16.6671 36.9252C16.3602 37.4912 16.0397 38.0299 15.7055 38.5414C15.3782 39.0529 15.0645 39.5507 14.7371 40.0076C14.4098 40.4645 14.1097 40.9146 13.796 41.3169C13.4823 41.7193 13.1755 42.1012 12.889 42.4558C12.3094 43.165 11.7706 43.7515 11.3478 44.2494C10.5567 45.0745 10.0521 45.5724 9.94298 45.6815C17.4054 37.3877 21.5264 26.6208 21.509 15.464C21.5101 10.658 20.7506 5.88204 19.2585 1.31347C19.2926 1.3953 19.3472 1.53851 19.429 1.7431C19.5586 2.06362 19.7495 2.54098 19.9541 3.16156C20.5398 4.87552 21.0068 6.62773 21.3521 8.40578C21.5894 9.59641 21.7669 10.7982 21.884 12.0065C22.0325 13.3538 22.1031 14.7087 22.0954 16.0641Z" fill="black"/>
</g>
<g style="mix-blend-mode:screen" opacity="0.4">
<path d="M44.4499 11.5729C44.4536 19.7301 42.2519 27.7367 38.0778 34.7451C33.9038 41.7535 27.9126 47.5031 20.7384 51.3854C20.8953 51.2763 21.5363 50.8398 22.5524 50.1715C23.1594 49.8101 23.8345 49.2713 24.6187 48.6849C25.4234 48.1188 26.2622 47.3891 27.1828 46.6185C27.4147 46.4208 27.6534 46.223 27.8921 46.0252C28.1171 45.807 28.349 45.5888 28.5809 45.3637C29.0583 44.9205 29.5425 44.4567 30.0471 43.9862C30.9745 42.9701 32.0111 41.954 32.9454 40.7742C33.9478 39.6558 34.8139 38.3737 35.755 37.1121C36.1846 36.4506 36.6143 35.7891 37.044 35.1208C37.4872 34.4593 37.835 33.7364 38.2374 33.0476C38.4352 32.6998 38.6465 32.3589 38.8238 32.0042L39.3422 30.9267C39.6831 30.2107 40.065 29.5151 40.3378 28.7718C40.631 28.0489 40.9243 27.326 41.2175 26.61C41.4631 25.8803 41.7086 25.1574 41.9472 24.4482C42.2132 23.7458 42.3564 23.0161 42.561 22.3273C42.7451 21.6249 42.9701 20.9566 43.0792 20.2746C43.3452 18.9243 43.6384 17.6491 43.768 16.4557C43.8566 15.8624 43.9385 15.2895 44.0136 14.7439C44.0613 14.1916 44.1022 13.6665 44.1431 13.1754C44.1841 12.6844 44.2181 12.2207 44.2522 11.7979C44.2931 11.3955 44.2727 10.9864 44.2863 10.6318C44.3068 9.38378 44.334 8.60635 44.3408 8.43586C44.4159 9.47243 44.4499 10.5158 44.4499 11.5729Z" fill="white"/>
</g>
<g style="mix-blend-mode:screen" opacity="0.4">
<path d="M21.5088 15.4668C21.5263 26.6236 17.4051 37.3904 9.94278 45.6843C9.93596 45.6979 9.92914 45.6979 9.92232 45.7047C9.92232 45.6979 9.92914 45.6911 9.93596 45.6843C10.0314 45.5547 10.4542 44.9818 11.1498 44.0748C11.5181 43.5429 11.9886 42.9155 12.4797 42.1585C12.9707 41.4016 13.523 40.5423 14.0754 39.5876C14.3687 39.117 14.6415 38.6124 14.9211 38.0873C15.2007 37.5622 15.5007 37.0234 15.7735 36.4506C16.0599 35.8846 16.3463 35.3049 16.6055 34.6911C16.8646 34.0774 17.1579 33.4704 17.3966 32.8294C17.6557 32.1884 17.9148 31.5405 18.1331 30.8654C18.3718 30.2039 18.5968 29.5219 18.8014 28.8331C18.9105 28.4853 19.0128 28.1375 19.1219 27.7898L19.3947 26.7327C19.5856 26.0303 19.7357 25.3143 19.8789 24.5982C20.186 23.1721 20.4204 21.7313 20.5813 20.2814C20.7381 18.8493 20.8609 17.4308 20.895 16.0533C21.0291 11.7487 20.626 7.44416 19.6947 3.23935C19.4697 2.2096 19.306 1.53445 19.2515 1.31623C19.2447 1.30259 19.2447 1.28896 19.2378 1.27532C19.234 1.26435 19.2316 1.25284 19.231 1.24121C19.2363 1.25227 19.2408 1.26367 19.2447 1.27532C19.2481 1.28929 19.2527 1.30297 19.2583 1.31623C20.7503 5.88481 21.5099 10.6607 21.5088 15.4668Z" fill="white"/>
</g>
<g style="mix-blend-mode:multiply" opacity="0.25">
<path d="M52.8516 26.4258C52.8514 33.4343 50.0672 40.1557 45.1114 45.1115C40.1557 50.0673 33.4343 52.8514 26.4258 52.8516C26.4258 52.8516 26.6577 52.8312 27.0941 52.7902C27.5374 52.763 28.1716 52.6675 28.9763 52.5584C29.781 52.4288 30.7494 52.2379 31.8405 51.9651C33.0517 51.6347 34.2426 51.2339 35.4071 50.7648C36.7721 50.1968 38.0902 49.5218 39.3489 48.7462C40.7384 47.8765 42.0504 46.8885 43.2701 45.7934C44.5664 44.6203 45.747 43.3254 46.7958 41.9267C47.8842 40.4919 48.8148 38.944 49.5714 37.3098C50.3444 35.681 50.9454 33.976 51.3649 32.2225C51.7703 30.524 52.0123 28.7909 52.0878 27.0464C52.1539 25.406 52.0763 23.7631 51.8559 22.1363C51.6524 20.6738 51.3307 19.2302 50.8944 17.8196C50.5207 16.6186 50.0697 15.4432 49.5441 14.3007C49.0599 13.2846 48.5962 12.4117 48.1802 11.7161C47.7642 11.0205 47.4164 10.4749 47.1641 10.1203C46.9731 9.84751 46.8572 9.67702 46.8094 9.602C50.7243 14.3335 52.8616 20.2848 52.8516 26.4258Z" fill="black"/>
</g>
<g style="mix-blend-mode:screen" opacity="0.4">
<path d="M4.26224 0.593298L0.716067 0.681956L0.797895 5.61931C0.831993 7.48787 0.825194 9.36325 0.838833 11.2386C0.852472 13.114 0.852472 14.9826 0.838833 16.8511C0.825194 18.7197 0.831993 20.5951 0.797895 22.4704L0.750179 25.2801L0.736526 26.6645C0.743345 27.135 0.729706 27.6124 0.756985 28.0556C0.786029 28.9641 0.865716 29.8703 0.995669 30.7698C1.12524 31.6768 1.30938 32.577 1.52079 33.4704C1.73674 34.3615 2.0008 35.2402 2.31184 36.1027C2.61872 36.9756 2.98017 37.8281 3.36888 38.6669C3.77806 39.492 4.19404 40.324 4.68505 41.1219C5.14878 41.9062 5.66707 42.6768 6.199 43.4269C2.18848 38.6705 -0.00769137 32.6473 2.02398e-05 26.4258V0H17.0489C14.2051 0.204587 11.3682 0.327335 8.52445 0.443267L4.26224 0.593298Z" fill="white"/>
</g>
</g>
</g>
<defs>
<filter id="filter0_d_2_30" x="-4" y="0" width="66.6323" height="64.1548" filterUnits="userSpaceOnUse" color-interpolation-filters="sRGB">
<feFlood flood-opacity="0" result="BackgroundImageFix"/>
<feColorMatrix in="SourceAlpha" type="matrix" values="0 0 0 0 0 0 0 0 0 0 0 0 0 0 0 0 0 0 127 0" result="hardAlpha"/>
<feOffset dy="4"/>
<feGaussianBlur stdDeviation="2"/>
<feComposite in2="hardAlpha" operator="out"/>
<feColorMatrix type="matrix" values="0 0 0 0 0 0 0 0 0 0 0 0 0 0 0 0 0 0 0.25 0"/>
<feBlend mode="normal" in2="BackgroundImageFix" result="effect1_dropShadow_2_30"/>
<feBlend mode="normal" in="SourceGraphic" in2="effect1_dropShadow_2_30" result="shape"/>
</filter>
<linearGradient id="paint0_linear_2_30" x1="42.0232" y1="10.1774" x2="42.0232" y2="56.1548" gradientUnits="userSpaceOnUse">
<stop stop-color="#37F533"/>
<stop offset="1" stop-color="#B3FF77"/>
</linearGradient>
<linearGradient id="paint1_linear_2_30" x1="32.6121" y1="6.16168" x2="32.6121" y2="51.0653" gradientUnits="userSpaceOnUse">
<stop stop-color="#0083FC"/>
<stop offset="1" stop-color="#F800D0"/>
</linearGradient>
<linearGradient id="paint2_linear_2_30" x1="16.5351" y1="3.30323" x2="16.5351" y2="49.7785" gradientUnits="userSpaceOnUse">
<stop/>
<stop offset="1" stop-color="#666666"/>
</linearGradient>
</defs>
</svg>
